<mxfile host="app.diagrams.net" modified="2023-10-05T13:47:31.693Z" agent="Mozilla/5.0 (Windows NT 10.0; Win64; x64) AppleWebKit/537.36 (KHTML, like Gecko) Chrome/117.0.0.0 Safari/537.36" etag="e_Wi71Sl-t407sMiNM82" version="21.8.2" type="device">
  <diagram id="R2lEEEUBdFMjLlhIrx00" name="Page-1">
    <mxGraphModel dx="2614" dy="2113" grid="1" gridSize="10" guides="1" tooltips="1" connect="1" arrows="1" fold="1" page="1" pageScale="1" pageWidth="850" pageHeight="1100" math="0" shadow="0" extFonts="Permanent Marker^https://fonts.googleapis.com/css?family=Permanent+Marker">
      <root>
        <mxCell id="0" />
        <mxCell id="1" parent="0" />
        <mxCell id="3sBckK8ojPLTGzXsMFCY-1" value="&lt;font style=&quot;font-size: 18px;&quot;&gt;User&lt;/font&gt;" style="rounded=0;whiteSpace=wrap;html=1;" parent="1" vertex="1">
          <mxGeometry x="230.01" y="260" width="120" height="60" as="geometry" />
        </mxCell>
        <mxCell id="3sBckK8ojPLTGzXsMFCY-2" value="&lt;font style=&quot;font-size: 18px;&quot;&gt;User_id&lt;/font&gt;" style="ellipse;whiteSpace=wrap;html=1;" parent="1" vertex="1">
          <mxGeometry x="410" y="150" width="140" height="75" as="geometry" />
        </mxCell>
        <mxCell id="3sBckK8ojPLTGzXsMFCY-3" value="&lt;font style=&quot;font-size: 18px;&quot;&gt;User_name&lt;/font&gt;" style="ellipse;whiteSpace=wrap;html=1;" parent="1" vertex="1">
          <mxGeometry x="103.12999999999998" y="-5" width="155.61" height="83" as="geometry" />
        </mxCell>
        <mxCell id="3sBckK8ojPLTGzXsMFCY-4" value="&lt;font style=&quot;font-size: 18px;&quot;&gt;User_mobile&lt;/font&gt;" style="ellipse;whiteSpace=wrap;html=1;" parent="1" vertex="1">
          <mxGeometry x="-112.82" y="165" width="166.87" height="90" as="geometry" />
        </mxCell>
        <mxCell id="3sBckK8ojPLTGzXsMFCY-5" value="&lt;font style=&quot;font-size: 18px;&quot;&gt;User_address&lt;/font&gt;" style="ellipse;whiteSpace=wrap;html=1;" parent="1" vertex="1">
          <mxGeometry x="-109.38000000000001" y="290" width="160" height="90" as="geometry" />
        </mxCell>
        <mxCell id="3sBckK8ojPLTGzXsMFCY-6" value="&lt;font style=&quot;font-size: 18px;&quot;&gt;User_email&lt;/font&gt;" style="ellipse;whiteSpace=wrap;html=1;" parent="1" vertex="1">
          <mxGeometry x="30" y="365" width="160" height="90" as="geometry" />
        </mxCell>
        <mxCell id="3sBckK8ojPLTGzXsMFCY-8" value="&lt;font style=&quot;font-size: 18px;&quot;&gt;User_country&lt;/font&gt;" style="ellipse;whiteSpace=wrap;html=1;" parent="1" vertex="1">
          <mxGeometry x="-95" y="46.5" width="164.37" height="90" as="geometry" />
        </mxCell>
        <mxCell id="3sBckK8ojPLTGzXsMFCY-15" value="&lt;font style=&quot;font-size: 18px;&quot;&gt;Room&lt;/font&gt;" style="rounded=0;whiteSpace=wrap;html=1;" parent="1" vertex="1">
          <mxGeometry x="224.07" y="972.5" width="130" height="70" as="geometry" />
        </mxCell>
        <mxCell id="3sBckK8ojPLTGzXsMFCY-16" value="&lt;font style=&quot;font-size: 18px;&quot;&gt;Room_price&lt;/font&gt;" style="ellipse;whiteSpace=wrap;html=1;" parent="1" vertex="1">
          <mxGeometry x="60" y="1080" width="130" height="68.75" as="geometry" />
        </mxCell>
        <mxCell id="3sBckK8ojPLTGzXsMFCY-17" value="&lt;font style=&quot;font-size: 18px;&quot;&gt;Room_id&lt;/font&gt;" style="ellipse;whiteSpace=wrap;html=1;" parent="1" vertex="1">
          <mxGeometry x="-95" y="902.5" width="131.25" height="70" as="geometry" />
        </mxCell>
        <mxCell id="3sBckK8ojPLTGzXsMFCY-18" value="&lt;font style=&quot;font-size: 18px;&quot;&gt;Room_type&lt;/font&gt;" style="ellipse;whiteSpace=wrap;html=1;" parent="1" vertex="1">
          <mxGeometry x="90" y="760" width="134.37" height="70" as="geometry" />
        </mxCell>
        <mxCell id="3sBckK8ojPLTGzXsMFCY-19" value="&lt;font style=&quot;font-size: 18px;&quot;&gt;Room_number&lt;/font&gt;" style="ellipse;whiteSpace=wrap;html=1;" parent="1" vertex="1">
          <mxGeometry x="-46.87" y="805" width="136.87" height="80" as="geometry" />
        </mxCell>
        <mxCell id="3sBckK8ojPLTGzXsMFCY-31" value="&lt;font style=&quot;font-size: 18px;&quot;&gt;Payment&lt;/font&gt;" style="rounded=0;whiteSpace=wrap;html=1;direction=south;rotation=0;" parent="1" vertex="1">
          <mxGeometry x="662.5" y="850" width="130" height="80" as="geometry" />
        </mxCell>
        <mxCell id="3sBckK8ojPLTGzXsMFCY-33" value="&lt;font style=&quot;font-size: 18px;&quot;&gt;Pay_amount&lt;/font&gt;" style="ellipse;whiteSpace=wrap;html=1;" parent="1" vertex="1">
          <mxGeometry x="880" y="820" width="160" height="80" as="geometry" />
        </mxCell>
        <mxCell id="3sBckK8ojPLTGzXsMFCY-35" value="&lt;font style=&quot;font-size: 18px;&quot;&gt;Pay_desc&lt;/font&gt;" style="ellipse;whiteSpace=wrap;html=1;" parent="1" vertex="1">
          <mxGeometry x="950" y="920" width="137.5" height="87.5" as="geometry" />
        </mxCell>
        <mxCell id="3sBckK8ojPLTGzXsMFCY-36" value="&lt;font style=&quot;font-size: 18px;&quot;&gt;User_pay_id&lt;/font&gt;" style="ellipse;whiteSpace=wrap;html=1;" parent="1" vertex="1">
          <mxGeometry x="896.25" y="720" width="150" height="85" as="geometry" />
        </mxCell>
        <mxCell id="3sBckK8ojPLTGzXsMFCY-37" value="&lt;font style=&quot;font-size: 18px;&quot;&gt;Address&lt;/font&gt;" style="ellipse;whiteSpace=wrap;html=1;direction=south;rotation=0;" parent="1" vertex="1">
          <mxGeometry x="800" y="972.5" width="160" height="87.5" as="geometry" />
        </mxCell>
        <mxCell id="3sBckK8ojPLTGzXsMFCY-44" value="&lt;font style=&quot;font-size: 18px;&quot;&gt;Admin&lt;/font&gt;" style="rounded=0;whiteSpace=wrap;html=1;" parent="1" vertex="1">
          <mxGeometry x="932.5" y="255" width="107.5" height="60" as="geometry" />
        </mxCell>
        <mxCell id="3sBckK8ojPLTGzXsMFCY-45" value="&lt;font style=&quot;font-size: 18px;&quot;&gt;Admin_id&lt;/font&gt;" style="ellipse;whiteSpace=wrap;html=1;" parent="1" vertex="1">
          <mxGeometry x="720" y="128" width="146.25" height="93" as="geometry" />
        </mxCell>
        <mxCell id="3sBckK8ojPLTGzXsMFCY-46" value="&lt;font style=&quot;font-size: 18px;&quot;&gt;user_pass&lt;/font&gt;" style="ellipse;whiteSpace=wrap;html=1;" parent="1" vertex="1">
          <mxGeometry x="840" y="34" width="170" height="103" as="geometry" />
        </mxCell>
        <mxCell id="3sBckK8ojPLTGzXsMFCY-47" value="&lt;font style=&quot;font-size: 18px;&quot;&gt;Admin_name&lt;/font&gt;" style="ellipse;whiteSpace=wrap;html=1;" parent="1" vertex="1">
          <mxGeometry x="1046.25" y="60" width="150" height="100" as="geometry" />
        </mxCell>
        <mxCell id="3sBckK8ojPLTGzXsMFCY-49" value="&lt;font style=&quot;font-size: 18px;&quot;&gt;Admin_pass&lt;/font&gt;" style="ellipse;whiteSpace=wrap;html=1;" parent="1" vertex="1">
          <mxGeometry x="1140" y="170" width="160" height="95" as="geometry" />
        </mxCell>
        <mxCell id="3sBckK8ojPLTGzXsMFCY-50" value="&lt;font style=&quot;font-size: 18px;&quot;&gt;Admin_email&lt;/font&gt;" style="ellipse;whiteSpace=wrap;html=1;" parent="1" vertex="1">
          <mxGeometry x="1205" y="55" width="165" height="95" as="geometry" />
        </mxCell>
        <mxCell id="3sBckK8ojPLTGzXsMFCY-51" value="&lt;font style=&quot;font-size: 18px;&quot;&gt;Admin_mob&lt;/font&gt;" style="ellipse;whiteSpace=wrap;html=1;" parent="1" vertex="1">
          <mxGeometry x="970" y="-56" width="170" height="90" as="geometry" />
        </mxCell>
        <mxCell id="3sBckK8ojPLTGzXsMFCY-52" value="&lt;font style=&quot;font-size: 18px;&quot;&gt;Login&lt;/font&gt;" style="whiteSpace=wrap;html=1;rounded=0;" parent="1" vertex="1">
          <mxGeometry x="567.5" y="-5" width="125" height="65" as="geometry" />
        </mxCell>
        <mxCell id="3sBckK8ojPLTGzXsMFCY-54" value="&lt;font style=&quot;font-size: 18px;&quot;&gt;Login_username&lt;/font&gt;" style="ellipse;whiteSpace=wrap;html=1;" parent="1" vertex="1">
          <mxGeometry x="440" y="-157" width="160" height="100" as="geometry" />
        </mxCell>
        <mxCell id="3sBckK8ojPLTGzXsMFCY-55" value="&lt;font style=&quot;font-size: 18px;&quot;&gt;Login_pass&lt;/font&gt;" style="ellipse;whiteSpace=wrap;html=1;" parent="1" vertex="1">
          <mxGeometry x="692.5" y="-150" width="147.5" height="93" as="geometry" />
        </mxCell>
        <mxCell id="3sBckK8ojPLTGzXsMFCY-56" value="&lt;font style=&quot;font-size: 18px;&quot;&gt;Login_id&lt;/font&gt;" style="ellipse;whiteSpace=wrap;html=1;" parent="1" vertex="1">
          <mxGeometry x="550" y="-270" width="160" height="90" as="geometry" />
        </mxCell>
        <mxCell id="3sBckK8ojPLTGzXsMFCY-65" value="&lt;font style=&quot;font-size: 18px;&quot;&gt;Booking&lt;/font&gt;" style="rounded=0;whiteSpace=wrap;html=1;" parent="1" vertex="1">
          <mxGeometry x="224.07" y="1360" width="130" height="70" as="geometry" />
        </mxCell>
        <mxCell id="3sBckK8ojPLTGzXsMFCY-66" value="&lt;font style=&quot;font-size: 18px;&quot;&gt;Booking_desc&lt;/font&gt;" style="ellipse;whiteSpace=wrap;html=1;" parent="1" vertex="1">
          <mxGeometry x="111.25" y="1580" width="147.49" height="80" as="geometry" />
        </mxCell>
        <mxCell id="3sBckK8ojPLTGzXsMFCY-67" value="&lt;font style=&quot;font-size: 18px;&quot;&gt;Booking_type&lt;/font&gt;" style="ellipse;whiteSpace=wrap;html=1;" parent="1" vertex="1">
          <mxGeometry x="-2.1899999999999995" y="1355" width="140" height="80" as="geometry" />
        </mxCell>
        <mxCell id="3sBckK8ojPLTGzXsMFCY-68" value="&lt;font style=&quot;font-size: 18px;&quot;&gt;Booking_id&lt;/font&gt;" style="ellipse;whiteSpace=wrap;html=1;" parent="1" vertex="1">
          <mxGeometry x="36.25" y="1240" width="125.63" height="80" as="geometry" />
        </mxCell>
        <mxCell id="3sBckK8ojPLTGzXsMFCY-71" value="&lt;font style=&quot;font-size: 18px;&quot;&gt;Period&lt;/font&gt;" style="ellipse;whiteSpace=wrap;html=1;" parent="1" vertex="1">
          <mxGeometry x="11.259999999999998" y="1470" width="133.75" height="80" as="geometry" />
        </mxCell>
        <mxCell id="3sBckK8ojPLTGzXsMFCY-75" value="&lt;font style=&quot;font-size: 18px;&quot;&gt;manage&lt;/font&gt;" style="rhombus;whiteSpace=wrap;html=1;" parent="1" vertex="1">
          <mxGeometry x="460" y="500" width="120" height="173.75" as="geometry" />
        </mxCell>
        <mxCell id="3sBckK8ojPLTGzXsMFCY-76" value="&lt;font style=&quot;font-size: 18px;&quot;&gt;Payment_method&lt;/font&gt;" style="ellipse;whiteSpace=wrap;html=1;" parent="1" vertex="1">
          <mxGeometry x="736.25" y="680" width="153.75" height="90" as="geometry" />
        </mxCell>
        <mxCell id="3sBckK8ojPLTGzXsMFCY-83" value="&lt;font style=&quot;font-size: 18px;&quot;&gt;Has&lt;/font&gt;" style="rhombus;whiteSpace=wrap;html=1;" parent="1" vertex="1">
          <mxGeometry x="590" y="245" width="80" height="80" as="geometry" />
        </mxCell>
        <mxCell id="3sBckK8ojPLTGzXsMFCY-84" value="" style="endArrow=none;html=1;rounded=0;exitX=0;exitY=0.5;exitDx=0;exitDy=0;entryX=1;entryY=0.5;entryDx=0;entryDy=0;" parent="1" source="3sBckK8ojPLTGzXsMFCY-83" target="3sBckK8ojPLTGzXsMFCY-1" edge="1">
          <mxGeometry width="50" height="50" relative="1" as="geometry">
            <mxPoint x="250" y="390" as="sourcePoint" />
            <mxPoint x="340" y="280" as="targetPoint" />
          </mxGeometry>
        </mxCell>
        <mxCell id="3sBckK8ojPLTGzXsMFCY-85" value="" style="endArrow=none;html=1;rounded=0;exitX=0.5;exitY=0;exitDx=0;exitDy=0;entryX=0.5;entryY=1;entryDx=0;entryDy=0;" parent="1" source="3sBckK8ojPLTGzXsMFCY-83" target="3sBckK8ojPLTGzXsMFCY-52" edge="1">
          <mxGeometry width="50" height="50" relative="1" as="geometry">
            <mxPoint x="250" y="390" as="sourcePoint" />
            <mxPoint x="560" y="280" as="targetPoint" />
            <Array as="points" />
          </mxGeometry>
        </mxCell>
        <mxCell id="3sBckK8ojPLTGzXsMFCY-86" value="" style="endArrow=none;html=1;rounded=0;entryX=1;entryY=0.5;entryDx=0;entryDy=0;exitX=0;exitY=0.5;exitDx=0;exitDy=0;" parent="1" source="3sBckK8ojPLTGzXsMFCY-44" target="3sBckK8ojPLTGzXsMFCY-83" edge="1">
          <mxGeometry width="50" height="50" relative="1" as="geometry">
            <mxPoint x="250" y="390" as="sourcePoint" />
            <mxPoint x="300" y="340" as="targetPoint" />
          </mxGeometry>
        </mxCell>
        <mxCell id="3sBckK8ojPLTGzXsMFCY-93" value="" style="endArrow=none;html=1;rounded=0;entryX=0;entryY=0.25;entryDx=0;entryDy=0;exitX=0.5;exitY=1;exitDx=0;exitDy=0;" parent="1" source="3sBckK8ojPLTGzXsMFCY-76" target="3sBckK8ojPLTGzXsMFCY-31" edge="1">
          <mxGeometry width="50" height="50" relative="1" as="geometry">
            <mxPoint x="380" y="610" as="sourcePoint" />
            <mxPoint x="430" y="560" as="targetPoint" />
          </mxGeometry>
        </mxCell>
        <mxCell id="3sBckK8ojPLTGzXsMFCY-95" value="" style="endArrow=none;html=1;rounded=0;exitX=0.5;exitY=0;exitDx=0;exitDy=0;entryX=0.5;entryY=1;entryDx=0;entryDy=0;" parent="1" source="3sBckK8ojPLTGzXsMFCY-75" target="3sBckK8ojPLTGzXsMFCY-1" edge="1">
          <mxGeometry width="50" height="50" relative="1" as="geometry">
            <mxPoint x="380" y="610" as="sourcePoint" />
            <mxPoint x="285" y="310" as="targetPoint" />
            <Array as="points">
              <mxPoint x="520" y="400" />
              <mxPoint x="290" y="400" />
            </Array>
          </mxGeometry>
        </mxCell>
        <mxCell id="3sBckK8ojPLTGzXsMFCY-96" value="" style="endArrow=none;html=1;rounded=0;entryX=0.5;entryY=1;entryDx=0;entryDy=0;exitX=0.5;exitY=1;exitDx=0;exitDy=0;" parent="1" source="3sBckK8ojPLTGzXsMFCY-31" target="3sBckK8ojPLTGzXsMFCY-75" edge="1">
          <mxGeometry width="50" height="50" relative="1" as="geometry">
            <mxPoint x="720" y="830" as="sourcePoint" />
            <mxPoint x="430" y="670" as="targetPoint" />
            <Array as="points">
              <mxPoint x="520" y="890" />
            </Array>
          </mxGeometry>
        </mxCell>
        <mxCell id="3sBckK8ojPLTGzXsMFCY-110" value="" style="endArrow=none;html=1;rounded=0;entryX=1;entryY=1;entryDx=0;entryDy=0;exitX=0;exitY=0;exitDx=0;exitDy=0;" parent="1" source="3sBckK8ojPLTGzXsMFCY-44" target="3sBckK8ojPLTGzXsMFCY-45" edge="1">
          <mxGeometry width="50" height="50" relative="1" as="geometry">
            <mxPoint x="440" y="420" as="sourcePoint" />
            <mxPoint x="490" y="370" as="targetPoint" />
          </mxGeometry>
        </mxCell>
        <mxCell id="3sBckK8ojPLTGzXsMFCY-111" value="" style="endArrow=none;html=1;rounded=0;entryX=0.5;entryY=1;entryDx=0;entryDy=0;exitX=0.25;exitY=0;exitDx=0;exitDy=0;" parent="1" source="3sBckK8ojPLTGzXsMFCY-44" target="3sBckK8ojPLTGzXsMFCY-46" edge="1">
          <mxGeometry width="50" height="50" relative="1" as="geometry">
            <mxPoint x="440" y="300" as="sourcePoint" />
            <mxPoint x="490" y="250" as="targetPoint" />
          </mxGeometry>
        </mxCell>
        <mxCell id="3sBckK8ojPLTGzXsMFCY-112" value="" style="endArrow=none;html=1;rounded=0;entryX=0.5;entryY=1;entryDx=0;entryDy=0;exitX=0.5;exitY=0;exitDx=0;exitDy=0;" parent="1" source="3sBckK8ojPLTGzXsMFCY-44" target="3sBckK8ojPLTGzXsMFCY-51" edge="1">
          <mxGeometry width="50" height="50" relative="1" as="geometry">
            <mxPoint x="986" y="250" as="sourcePoint" />
            <mxPoint x="460" y="60" as="targetPoint" />
            <Array as="points" />
          </mxGeometry>
        </mxCell>
        <mxCell id="3sBckK8ojPLTGzXsMFCY-113" value="" style="endArrow=none;html=1;rounded=0;entryX=0.35;entryY=0.949;entryDx=0;entryDy=0;entryPerimeter=0;" parent="1" target="3sBckK8ojPLTGzXsMFCY-47" edge="1">
          <mxGeometry width="50" height="50" relative="1" as="geometry">
            <mxPoint x="1000" y="260" as="sourcePoint" />
            <mxPoint x="490" y="250" as="targetPoint" />
          </mxGeometry>
        </mxCell>
        <mxCell id="3sBckK8ojPLTGzXsMFCY-114" value="" style="endArrow=none;html=1;rounded=0;entryX=0;entryY=1;entryDx=0;entryDy=0;exitX=0.75;exitY=0;exitDx=0;exitDy=0;" parent="1" source="3sBckK8ojPLTGzXsMFCY-44" target="3sBckK8ojPLTGzXsMFCY-50" edge="1">
          <mxGeometry width="50" height="50" relative="1" as="geometry">
            <mxPoint x="440" y="300" as="sourcePoint" />
            <mxPoint x="490" y="250" as="targetPoint" />
          </mxGeometry>
        </mxCell>
        <mxCell id="3sBckK8ojPLTGzXsMFCY-115" value="" style="endArrow=none;html=1;rounded=0;exitX=1;exitY=0.25;exitDx=0;exitDy=0;entryX=0;entryY=0.5;entryDx=0;entryDy=0;" parent="1" source="3sBckK8ojPLTGzXsMFCY-44" target="3sBckK8ojPLTGzXsMFCY-49" edge="1">
          <mxGeometry width="50" height="50" relative="1" as="geometry">
            <mxPoint x="440" y="300" as="sourcePoint" />
            <mxPoint x="1130" y="240" as="targetPoint" />
            <Array as="points" />
          </mxGeometry>
        </mxCell>
        <mxCell id="3sBckK8ojPLTGzXsMFCY-116" value="" style="endArrow=none;html=1;rounded=0;entryX=0;entryY=0.5;entryDx=0;entryDy=0;exitX=0.75;exitY=0;exitDx=0;exitDy=0;" parent="1" source="3sBckK8ojPLTGzXsMFCY-1" target="3sBckK8ojPLTGzXsMFCY-2" edge="1">
          <mxGeometry width="50" height="50" relative="1" as="geometry">
            <mxPoint x="440" y="330" as="sourcePoint" />
            <mxPoint x="490" y="280" as="targetPoint" />
          </mxGeometry>
        </mxCell>
        <mxCell id="3sBckK8ojPLTGzXsMFCY-117" value="" style="endArrow=none;html=1;rounded=0;entryX=0.5;entryY=1;entryDx=0;entryDy=0;exitX=0.25;exitY=0;exitDx=0;exitDy=0;" parent="1" source="3sBckK8ojPLTGzXsMFCY-1" target="3sBckK8ojPLTGzXsMFCY-3" edge="1">
          <mxGeometry width="50" height="50" relative="1" as="geometry">
            <mxPoint x="440" y="330" as="sourcePoint" />
            <mxPoint x="490" y="280" as="targetPoint" />
          </mxGeometry>
        </mxCell>
        <mxCell id="3sBckK8ojPLTGzXsMFCY-118" value="" style="endArrow=none;html=1;rounded=0;entryX=1;entryY=1;entryDx=0;entryDy=0;exitX=0;exitY=0;exitDx=0;exitDy=0;" parent="1" source="3sBckK8ojPLTGzXsMFCY-1" target="3sBckK8ojPLTGzXsMFCY-8" edge="1">
          <mxGeometry width="50" height="50" relative="1" as="geometry">
            <mxPoint x="240" y="273" as="sourcePoint" />
            <mxPoint x="490" y="280" as="targetPoint" />
          </mxGeometry>
        </mxCell>
        <mxCell id="3sBckK8ojPLTGzXsMFCY-119" value="" style="endArrow=none;html=1;rounded=0;entryX=0;entryY=0.5;entryDx=0;entryDy=0;exitX=1;exitY=0.5;exitDx=0;exitDy=0;" parent="1" source="3sBckK8ojPLTGzXsMFCY-4" target="3sBckK8ojPLTGzXsMFCY-1" edge="1">
          <mxGeometry width="50" height="50" relative="1" as="geometry">
            <mxPoint x="440" y="330" as="sourcePoint" />
            <mxPoint x="490" y="280" as="targetPoint" />
          </mxGeometry>
        </mxCell>
        <mxCell id="3sBckK8ojPLTGzXsMFCY-120" value="" style="endArrow=none;html=1;rounded=0;exitX=1;exitY=0.5;exitDx=0;exitDy=0;entryX=0;entryY=0.75;entryDx=0;entryDy=0;" parent="1" source="3sBckK8ojPLTGzXsMFCY-5" target="3sBckK8ojPLTGzXsMFCY-1" edge="1">
          <mxGeometry width="50" height="50" relative="1" as="geometry">
            <mxPoint x="440" y="330" as="sourcePoint" />
            <mxPoint x="490" y="280" as="targetPoint" />
          </mxGeometry>
        </mxCell>
        <mxCell id="3sBckK8ojPLTGzXsMFCY-121" value="" style="endArrow=none;html=1;rounded=0;exitX=1;exitY=0.5;exitDx=0;exitDy=0;entryX=0;entryY=1;entryDx=0;entryDy=0;" parent="1" source="3sBckK8ojPLTGzXsMFCY-6" target="3sBckK8ojPLTGzXsMFCY-1" edge="1">
          <mxGeometry width="50" height="50" relative="1" as="geometry">
            <mxPoint x="440" y="330" as="sourcePoint" />
            <mxPoint x="490" y="280" as="targetPoint" />
          </mxGeometry>
        </mxCell>
        <mxCell id="3sBckK8ojPLTGzXsMFCY-122" value="" style="endArrow=none;html=1;rounded=0;entryX=0.5;entryY=1;entryDx=0;entryDy=0;exitX=0.5;exitY=0;exitDx=0;exitDy=0;" parent="1" source="3sBckK8ojPLTGzXsMFCY-52" target="3sBckK8ojPLTGzXsMFCY-56" edge="1">
          <mxGeometry width="50" height="50" relative="1" as="geometry">
            <mxPoint x="440" y="360" as="sourcePoint" />
            <mxPoint x="490" y="310" as="targetPoint" />
          </mxGeometry>
        </mxCell>
        <mxCell id="3sBckK8ojPLTGzXsMFCY-123" value="" style="endArrow=none;html=1;rounded=0;entryX=0.5;entryY=1;entryDx=0;entryDy=0;exitX=0.25;exitY=0;exitDx=0;exitDy=0;" parent="1" source="3sBckK8ojPLTGzXsMFCY-52" target="3sBckK8ojPLTGzXsMFCY-54" edge="1">
          <mxGeometry width="50" height="50" relative="1" as="geometry">
            <mxPoint x="480" y="160" as="sourcePoint" />
            <mxPoint x="490" y="310" as="targetPoint" />
          </mxGeometry>
        </mxCell>
        <mxCell id="3sBckK8ojPLTGzXsMFCY-124" value="" style="endArrow=none;html=1;rounded=0;entryX=0;entryY=1;entryDx=0;entryDy=0;exitX=0.75;exitY=0;exitDx=0;exitDy=0;" parent="1" source="3sBckK8ojPLTGzXsMFCY-52" target="3sBckK8ojPLTGzXsMFCY-55" edge="1">
          <mxGeometry width="50" height="50" relative="1" as="geometry">
            <mxPoint x="440" y="360" as="sourcePoint" />
            <mxPoint x="490" y="310" as="targetPoint" />
            <Array as="points" />
          </mxGeometry>
        </mxCell>
        <mxCell id="3sBckK8ojPLTGzXsMFCY-131" value="" style="endArrow=none;html=1;rounded=0;entryX=1;entryY=0.5;entryDx=0;entryDy=0;exitX=0;exitY=0.5;exitDx=0;exitDy=0;" parent="1" source="3sBckK8ojPLTGzXsMFCY-15" target="3sBckK8ojPLTGzXsMFCY-17" edge="1">
          <mxGeometry width="50" height="50" relative="1" as="geometry">
            <mxPoint x="670" y="810" as="sourcePoint" />
            <mxPoint x="470" y="850" as="targetPoint" />
          </mxGeometry>
        </mxCell>
        <mxCell id="3sBckK8ojPLTGzXsMFCY-132" value="" style="endArrow=none;html=1;rounded=0;entryX=0.5;entryY=1;entryDx=0;entryDy=0;exitX=0.25;exitY=0;exitDx=0;exitDy=0;" parent="1" source="3sBckK8ojPLTGzXsMFCY-15" target="3sBckK8ojPLTGzXsMFCY-18" edge="1">
          <mxGeometry width="50" height="50" relative="1" as="geometry">
            <mxPoint x="420" y="900" as="sourcePoint" />
            <mxPoint x="470" y="850" as="targetPoint" />
          </mxGeometry>
        </mxCell>
        <mxCell id="3sBckK8ojPLTGzXsMFCY-133" value="" style="endArrow=none;html=1;rounded=0;entryX=1;entryY=0.5;entryDx=0;entryDy=0;exitX=0;exitY=0;exitDx=0;exitDy=0;" parent="1" source="3sBckK8ojPLTGzXsMFCY-15" target="3sBckK8ojPLTGzXsMFCY-19" edge="1">
          <mxGeometry width="50" height="50" relative="1" as="geometry">
            <mxPoint x="420" y="900" as="sourcePoint" />
            <mxPoint x="470" y="850" as="targetPoint" />
          </mxGeometry>
        </mxCell>
        <mxCell id="3sBckK8ojPLTGzXsMFCY-134" value="" style="endArrow=none;html=1;rounded=0;entryX=1;entryY=0;entryDx=0;entryDy=0;exitX=0.25;exitY=1;exitDx=0;exitDy=0;" parent="1" source="3sBckK8ojPLTGzXsMFCY-15" target="3sBckK8ojPLTGzXsMFCY-16" edge="1">
          <mxGeometry width="50" height="50" relative="1" as="geometry">
            <mxPoint x="631" y="853" as="sourcePoint" />
            <mxPoint x="470" y="850" as="targetPoint" />
          </mxGeometry>
        </mxCell>
        <mxCell id="3sBckK8ojPLTGzXsMFCY-135" value="" style="endArrow=none;html=1;rounded=0;entryX=1;entryY=0;entryDx=0;entryDy=0;exitX=0;exitY=1;exitDx=0;exitDy=0;" parent="1" source="3sBckK8ojPLTGzXsMFCY-65" target="3sBckK8ojPLTGzXsMFCY-71" edge="1">
          <mxGeometry width="50" height="50" relative="1" as="geometry">
            <mxPoint x="420" y="990" as="sourcePoint" />
            <mxPoint x="470" y="940" as="targetPoint" />
          </mxGeometry>
        </mxCell>
        <mxCell id="3sBckK8ojPLTGzXsMFCY-139" value="" style="endArrow=none;html=1;rounded=0;entryX=1;entryY=1;entryDx=0;entryDy=0;exitX=0;exitY=0.25;exitDx=0;exitDy=0;" parent="1" source="3sBckK8ojPLTGzXsMFCY-65" target="3sBckK8ojPLTGzXsMFCY-68" edge="1">
          <mxGeometry width="50" height="50" relative="1" as="geometry">
            <mxPoint x="420" y="990" as="sourcePoint" />
            <mxPoint x="470" y="940" as="targetPoint" />
            <Array as="points" />
          </mxGeometry>
        </mxCell>
        <mxCell id="3sBckK8ojPLTGzXsMFCY-140" value="" style="endArrow=none;html=1;rounded=0;entryX=1;entryY=0.5;entryDx=0;entryDy=0;exitX=0;exitY=0.5;exitDx=0;exitDy=0;" parent="1" source="3sBckK8ojPLTGzXsMFCY-65" target="3sBckK8ojPLTGzXsMFCY-67" edge="1">
          <mxGeometry width="50" height="50" relative="1" as="geometry">
            <mxPoint x="420" y="990" as="sourcePoint" />
            <mxPoint x="470" y="940" as="targetPoint" />
            <Array as="points" />
          </mxGeometry>
        </mxCell>
        <mxCell id="3sBckK8ojPLTGzXsMFCY-141" value="" style="endArrow=none;html=1;rounded=0;exitX=0.5;exitY=1;exitDx=0;exitDy=0;" parent="1" source="3sBckK8ojPLTGzXsMFCY-65" target="3sBckK8ojPLTGzXsMFCY-66" edge="1">
          <mxGeometry width="50" height="50" relative="1" as="geometry">
            <mxPoint x="350" y="1300" as="sourcePoint" />
            <mxPoint x="470" y="940" as="targetPoint" />
          </mxGeometry>
        </mxCell>
        <mxCell id="3sBckK8ojPLTGzXsMFCY-142" value="&lt;font style=&quot;font-size: 18px;&quot;&gt;Room_desc&lt;/font&gt;" style="ellipse;whiteSpace=wrap;html=1;" parent="1" vertex="1">
          <mxGeometry x="-28.43" y="990" width="130" height="80" as="geometry" />
        </mxCell>
        <mxCell id="3sBckK8ojPLTGzXsMFCY-143" value="" style="endArrow=none;html=1;rounded=0;entryX=0;entryY=0.75;entryDx=0;entryDy=0;" parent="1" source="3sBckK8ojPLTGzXsMFCY-142" target="3sBckK8ojPLTGzXsMFCY-15" edge="1">
          <mxGeometry width="50" height="50" relative="1" as="geometry">
            <mxPoint x="420" y="990" as="sourcePoint" />
            <mxPoint x="470" y="940" as="targetPoint" />
          </mxGeometry>
        </mxCell>
        <mxCell id="3sBckK8ojPLTGzXsMFCY-144" value="" style="endArrow=none;html=1;rounded=0;entryX=0;entryY=1;entryDx=0;entryDy=0;exitX=1;exitY=0;exitDx=0;exitDy=0;" parent="1" source="3sBckK8ojPLTGzXsMFCY-31" target="3sBckK8ojPLTGzXsMFCY-37" edge="1">
          <mxGeometry width="50" height="50" relative="1" as="geometry">
            <mxPoint x="380" y="740" as="sourcePoint" />
            <mxPoint x="430" y="690" as="targetPoint" />
          </mxGeometry>
        </mxCell>
        <mxCell id="3sBckK8ojPLTGzXsMFCY-146" value="" style="endArrow=none;html=1;rounded=0;entryX=0;entryY=0.5;entryDx=0;entryDy=0;exitX=0.75;exitY=0;exitDx=0;exitDy=0;" parent="1" source="3sBckK8ojPLTGzXsMFCY-31" target="3sBckK8ojPLTGzXsMFCY-35" edge="1">
          <mxGeometry width="50" height="50" relative="1" as="geometry">
            <mxPoint x="380" y="740" as="sourcePoint" />
            <mxPoint x="430" y="690" as="targetPoint" />
          </mxGeometry>
        </mxCell>
        <mxCell id="3sBckK8ojPLTGzXsMFCY-147" value="" style="endArrow=none;html=1;rounded=0;exitX=0.5;exitY=0;exitDx=0;exitDy=0;entryX=0;entryY=0.5;entryDx=0;entryDy=0;" parent="1" source="3sBckK8ojPLTGzXsMFCY-31" target="3sBckK8ojPLTGzXsMFCY-33" edge="1">
          <mxGeometry width="50" height="50" relative="1" as="geometry">
            <mxPoint x="380" y="740" as="sourcePoint" />
            <mxPoint x="1010" y="850" as="targetPoint" />
            <Array as="points" />
          </mxGeometry>
        </mxCell>
        <mxCell id="3sBckK8ojPLTGzXsMFCY-148" value="" style="endArrow=none;html=1;rounded=0;entryX=0.032;entryY=0.719;entryDx=0;entryDy=0;exitX=0;exitY=0;exitDx=0;exitDy=0;entryPerimeter=0;" parent="1" source="3sBckK8ojPLTGzXsMFCY-31" target="3sBckK8ojPLTGzXsMFCY-36" edge="1">
          <mxGeometry width="50" height="50" relative="1" as="geometry">
            <mxPoint x="380" y="740" as="sourcePoint" />
            <mxPoint x="430" y="690" as="targetPoint" />
          </mxGeometry>
        </mxCell>
        <mxCell id="UMABrETS_sxgD7Yc1D4Y-10" value="&lt;font style=&quot;font-size: 18px;&quot;&gt;Permission&lt;/font&gt;" style="rounded=0;whiteSpace=wrap;html=1;" parent="1" vertex="1">
          <mxGeometry x="1130" y="510" width="120" height="60" as="geometry" />
        </mxCell>
        <mxCell id="UMABrETS_sxgD7Yc1D4Y-13" value="" style="endArrow=none;html=1;rounded=0;entryX=1;entryY=0.25;entryDx=0;entryDy=0;exitX=0;exitY=1;exitDx=0;exitDy=0;" parent="1" source="UMABrETS_sxgD7Yc1D4Y-17" target="UMABrETS_sxgD7Yc1D4Y-10" edge="1">
          <mxGeometry width="50" height="50" relative="1" as="geometry">
            <mxPoint x="1020" y="420" as="sourcePoint" />
            <mxPoint x="520" y="480" as="targetPoint" />
          </mxGeometry>
        </mxCell>
        <mxCell id="UMABrETS_sxgD7Yc1D4Y-15" value="&lt;font style=&quot;font-size: 18px;&quot;&gt;Decline&lt;/font&gt;" style="ellipse;whiteSpace=wrap;html=1;" parent="1" vertex="1">
          <mxGeometry x="1335" y="600" width="130" height="80" as="geometry" />
        </mxCell>
        <mxCell id="UMABrETS_sxgD7Yc1D4Y-16" value="&lt;font style=&quot;font-size: 18px;&quot;&gt;Accept&lt;/font&gt;" style="ellipse;whiteSpace=wrap;html=1;" parent="1" vertex="1">
          <mxGeometry x="1320" y="500" width="145" height="70" as="geometry" />
        </mxCell>
        <mxCell id="UMABrETS_sxgD7Yc1D4Y-17" value="&lt;font style=&quot;font-size: 18px;&quot;&gt;Per_id&lt;/font&gt;" style="ellipse;whiteSpace=wrap;html=1;" parent="1" vertex="1">
          <mxGeometry x="1370" y="380" width="140" height="80" as="geometry" />
        </mxCell>
        <mxCell id="UMABrETS_sxgD7Yc1D4Y-18" value="" style="endArrow=none;html=1;rounded=0;entryX=0;entryY=0.5;entryDx=0;entryDy=0;exitX=1;exitY=0.5;exitDx=0;exitDy=0;" parent="1" source="UMABrETS_sxgD7Yc1D4Y-10" target="UMABrETS_sxgD7Yc1D4Y-16" edge="1">
          <mxGeometry width="50" height="50" relative="1" as="geometry">
            <mxPoint x="980" y="530" as="sourcePoint" />
            <mxPoint x="520" y="480" as="targetPoint" />
          </mxGeometry>
        </mxCell>
        <mxCell id="UMABrETS_sxgD7Yc1D4Y-19" value="" style="endArrow=none;html=1;rounded=0;entryX=0;entryY=0.5;entryDx=0;entryDy=0;exitX=1;exitY=0.75;exitDx=0;exitDy=0;" parent="1" source="UMABrETS_sxgD7Yc1D4Y-10" target="UMABrETS_sxgD7Yc1D4Y-15" edge="1">
          <mxGeometry width="50" height="50" relative="1" as="geometry">
            <mxPoint x="470" y="530" as="sourcePoint" />
            <mxPoint x="520" y="480" as="targetPoint" />
          </mxGeometry>
        </mxCell>
        <mxCell id="UMABrETS_sxgD7Yc1D4Y-20" value="" style="endArrow=none;html=1;rounded=0;entryX=1;entryY=0.5;entryDx=0;entryDy=0;exitX=0.5;exitY=0;exitDx=0;exitDy=0;" parent="1" source="UMABrETS_sxgD7Yc1D4Y-21" target="3sBckK8ojPLTGzXsMFCY-44" edge="1">
          <mxGeometry width="50" height="50" relative="1" as="geometry">
            <mxPoint x="940" y="310" as="sourcePoint" />
            <mxPoint x="520" y="480" as="targetPoint" />
            <Array as="points">
              <mxPoint x="1190" y="285" />
              <mxPoint x="1070" y="285" />
            </Array>
          </mxGeometry>
        </mxCell>
        <mxCell id="UMABrETS_sxgD7Yc1D4Y-21" value="&lt;font style=&quot;font-size: 18px;&quot;&gt;Has&lt;/font&gt;" style="rhombus;whiteSpace=wrap;html=1;" parent="1" vertex="1">
          <mxGeometry x="1150" y="370" width="80" height="80" as="geometry" />
        </mxCell>
        <mxCell id="UMABrETS_sxgD7Yc1D4Y-22" value="" style="endArrow=none;html=1;rounded=0;entryX=0.5;entryY=1;entryDx=0;entryDy=0;exitX=0.5;exitY=0;exitDx=0;exitDy=0;" parent="1" source="UMABrETS_sxgD7Yc1D4Y-10" target="UMABrETS_sxgD7Yc1D4Y-21" edge="1">
          <mxGeometry width="50" height="50" relative="1" as="geometry">
            <mxPoint x="470" y="530" as="sourcePoint" />
            <mxPoint x="520" y="480" as="targetPoint" />
          </mxGeometry>
        </mxCell>
        <mxCell id="UMABrETS_sxgD7Yc1D4Y-26" value="" style="endArrow=none;html=1;rounded=0;entryX=0.5;entryY=1;entryDx=0;entryDy=0;exitX=0.5;exitY=0;exitDx=0;exitDy=0;" parent="1" source="3sBckK8ojPLTGzXsMFCY-75" target="3sBckK8ojPLTGzXsMFCY-44" edge="1">
          <mxGeometry width="50" height="50" relative="1" as="geometry">
            <mxPoint x="470" y="620" as="sourcePoint" />
            <mxPoint x="520" y="570" as="targetPoint" />
            <Array as="points">
              <mxPoint x="986" y="500" />
            </Array>
          </mxGeometry>
        </mxCell>
        <mxCell id="UMABrETS_sxgD7Yc1D4Y-29" value="&lt;font style=&quot;font-size: 18px;&quot;&gt;Has&lt;/font&gt;" style="rhombus;whiteSpace=wrap;html=1;" parent="1" vertex="1">
          <mxGeometry x="249.07" y="1148.75" width="80" height="80" as="geometry" />
        </mxCell>
        <mxCell id="UMABrETS_sxgD7Yc1D4Y-31" value="" style="endArrow=none;html=1;rounded=0;entryX=0;entryY=0.5;entryDx=0;entryDy=0;exitX=0.5;exitY=0;exitDx=0;exitDy=0;" parent="1" source="3sBckK8ojPLTGzXsMFCY-15" target="3sBckK8ojPLTGzXsMFCY-75" edge="1">
          <mxGeometry width="50" height="50" relative="1" as="geometry">
            <mxPoint x="380" y="760" as="sourcePoint" />
            <mxPoint x="290.0100000000002" y="860.0000000000005" as="targetPoint" />
            <Array as="points">
              <mxPoint x="289" y="587" />
            </Array>
          </mxGeometry>
        </mxCell>
        <mxCell id="UMABrETS_sxgD7Yc1D4Y-32" value="" style="endArrow=none;html=1;rounded=0;entryX=0.5;entryY=1;entryDx=0;entryDy=0;exitX=0.5;exitY=0;exitDx=0;exitDy=0;" parent="1" source="UMABrETS_sxgD7Yc1D4Y-29" target="3sBckK8ojPLTGzXsMFCY-15" edge="1">
          <mxGeometry width="50" height="50" relative="1" as="geometry">
            <mxPoint x="380" y="1000" as="sourcePoint" />
            <mxPoint x="430" y="950" as="targetPoint" />
          </mxGeometry>
        </mxCell>
        <mxCell id="UMABrETS_sxgD7Yc1D4Y-33" value="" style="endArrow=none;html=1;rounded=0;entryX=0.5;entryY=0;entryDx=0;entryDy=0;exitX=0.5;exitY=1;exitDx=0;exitDy=0;" parent="1" source="UMABrETS_sxgD7Yc1D4Y-29" target="3sBckK8ojPLTGzXsMFCY-65" edge="1">
          <mxGeometry width="50" height="50" relative="1" as="geometry">
            <mxPoint x="380" y="1000" as="sourcePoint" />
            <mxPoint x="430" y="950" as="targetPoint" />
          </mxGeometry>
        </mxCell>
        <mxCell id="E0EIKhZcOUUWMJC8WOqo-1" value="&lt;span style=&quot;font-size: 18px;&quot;&gt;Check_in&lt;/span&gt;" style="ellipse;whiteSpace=wrap;html=1;" parent="1" vertex="1">
          <mxGeometry x="300" y="1580" width="147.49" height="80" as="geometry" />
        </mxCell>
        <mxCell id="E0EIKhZcOUUWMJC8WOqo-2" value="&lt;font style=&quot;font-size: 18px;&quot;&gt;Check_out&lt;/font&gt;" style="ellipse;whiteSpace=wrap;html=1;" parent="1" vertex="1">
          <mxGeometry x="470" y="1520" width="147.49" height="80" as="geometry" />
        </mxCell>
        <mxCell id="E0EIKhZcOUUWMJC8WOqo-3" value="" style="endArrow=none;html=1;rounded=0;exitX=0.5;exitY=0;exitDx=0;exitDy=0;entryX=0.75;entryY=1;entryDx=0;entryDy=0;" parent="1" source="E0EIKhZcOUUWMJC8WOqo-1" target="3sBckK8ojPLTGzXsMFCY-65" edge="1">
          <mxGeometry width="50" height="50" relative="1" as="geometry">
            <mxPoint x="570" y="1130" as="sourcePoint" />
            <mxPoint x="620" y="1080" as="targetPoint" />
          </mxGeometry>
        </mxCell>
        <mxCell id="E0EIKhZcOUUWMJC8WOqo-4" value="" style="endArrow=none;html=1;rounded=0;exitX=0;exitY=0;exitDx=0;exitDy=0;entryX=1;entryY=1;entryDx=0;entryDy=0;" parent="1" source="E0EIKhZcOUUWMJC8WOqo-2" target="3sBckK8ojPLTGzXsMFCY-65" edge="1">
          <mxGeometry width="50" height="50" relative="1" as="geometry">
            <mxPoint x="570" y="1130" as="sourcePoint" />
            <mxPoint x="620" y="1080" as="targetPoint" />
          </mxGeometry>
        </mxCell>
        <mxCell id="7Cui4h2gI2oQVE2v1sev-1" value="&lt;font style=&quot;font-size: 18px;&quot;&gt;Aadhar&lt;/font&gt;" style="ellipse;whiteSpace=wrap;html=1;" parent="1" vertex="1">
          <mxGeometry x="305" y="34" width="120" height="80" as="geometry" />
        </mxCell>
        <mxCell id="7Cui4h2gI2oQVE2v1sev-2" value="" style="endArrow=none;html=1;rounded=0;entryX=0.375;entryY=0.95;entryDx=0;entryDy=0;entryPerimeter=0;exitX=0.5;exitY=0;exitDx=0;exitDy=0;" parent="1" source="3sBckK8ojPLTGzXsMFCY-1" target="7Cui4h2gI2oQVE2v1sev-1" edge="1">
          <mxGeometry width="50" height="50" relative="1" as="geometry">
            <mxPoint x="360" y="320" as="sourcePoint" />
            <mxPoint x="410" y="270" as="targetPoint" />
          </mxGeometry>
        </mxCell>
      </root>
    </mxGraphModel>
  </diagram>
</mxfile>
